<svg xmlns="http://www.w3.org/2000/svg" width="153.617" height="27.163" viewBox="0 0 153.617 27.163">
  <g id="_5_STARS" data-name="5 STARS" transform="translate(-830 -261.999)">
    <path id="Icon_awesome-star" data-name="Icon awesome-star" d="M14.109.944,10.645,7.967,2.895,9.1a1.7,1.7,0,0,0-.939,2.9l5.607,5.464L6.237,25.176A1.7,1.7,0,0,0,8.7,26.963l6.933-3.644,6.933,3.644a1.7,1.7,0,0,0,2.461-1.788L23.7,17.457l5.607-5.464a1.7,1.7,0,0,0-.939-2.9l-7.75-1.13L17.154.944a1.7,1.7,0,0,0-3.045,0Z" transform="translate(828.559 262)" fill="#5b25ef"/>
    <path id="Icon_awesome-star-2" data-name="Icon awesome-star" d="M14.109.944,10.645,7.967,2.895,9.1a1.7,1.7,0,0,0-.939,2.9l5.607,5.464L6.237,25.176A1.7,1.7,0,0,0,8.7,26.963l6.933-3.644,6.933,3.644a1.7,1.7,0,0,0,2.461-1.788L23.7,17.457l5.607-5.464a1.7,1.7,0,0,0-.939-2.9l-7.75-1.13L17.154.944a1.7,1.7,0,0,0-3.045,0Z" transform="translate(859.491 262)" fill="#5b25ef"/>
    <path id="Icon_awesome-star-3" data-name="Icon awesome-star" d="M14.109.944,10.645,7.967,2.895,9.1a1.7,1.7,0,0,0-.939,2.9l5.607,5.464L6.237,25.176A1.7,1.7,0,0,0,8.7,26.963l6.933-3.644,6.933,3.644a1.7,1.7,0,0,0,2.461-1.788L23.7,17.457l5.607-5.464a1.7,1.7,0,0,0-.939-2.9l-7.75-1.13L17.154.944a1.7,1.7,0,0,0-3.045,0Z" transform="translate(891.177 262)" fill="#5b25ef"/>
    <path id="Icon_awesome-star-4" data-name="Icon awesome-star" d="M14.109.944,10.645,7.967,2.895,9.1a1.7,1.7,0,0,0-.939,2.9l5.607,5.464L6.237,25.176A1.7,1.7,0,0,0,8.7,26.963l6.933-3.644,6.933,3.644a1.7,1.7,0,0,0,2.461-1.788L23.7,17.457l5.607-5.464a1.7,1.7,0,0,0-.939-2.9l-7.75-1.13L17.154.944a1.7,1.7,0,0,0-3.045,0Z" transform="translate(922.109 262)" fill="#5b25ef"/>
    <path id="Icon_awesome-star-5" data-name="Icon awesome-star" d="M14.109.944,10.645,7.967,2.895,9.1a1.7,1.7,0,0,0-.939,2.9l5.607,5.464L6.237,25.176A1.7,1.7,0,0,0,8.7,26.963l6.933-3.644,6.933,3.644a1.7,1.7,0,0,0,2.461-1.788L23.7,17.457l5.607-5.464a1.7,1.7,0,0,0-.939-2.9l-7.75-1.13L17.154.944a1.7,1.7,0,0,0-3.045,0Z" transform="translate(953.796 262)" fill="#5b25ef"/>
  </g>
</svg>
