<svg xmlns="http://www.w3.org/2000/svg" width="60" height="60" viewBox="0 0 60 60">
  <g id="Group_413" data-name="Group 413" transform="translate(-1560 -1905.5)">
    <g id="Rectangle_15" data-name="Rectangle 15" transform="translate(1560 1905.5)" fill="#838383" stroke="#292929" stroke-width="1">
      <path d="M0,0H58a2,2,0,0,1,2,2V58a2,2,0,0,1-2,2H0a0,0,0,0,1,0,0V0A0,0,0,0,1,0,0Z" stroke="none"/>
      <path d="M1,.5H58A1.5,1.5,0,0,1,59.5,2V58A1.5,1.5,0,0,1,58,59.5H1A.5.5,0,0,1,.5,59V1A.5.5,0,0,1,1,.5Z" fill="none"/>
    </g>
    <path id="Icon_ionic-ios-arrow-down" data-name="Icon ionic-ios-arrow-down" d="M18,20.679l8.93-8.937a1.681,1.681,0,0,1,2.384,0,1.7,1.7,0,0,1,0,2.391L19.2,24.258a1.685,1.685,0,0,1-2.327.049L6.68,14.14a1.688,1.688,0,0,1,2.384-2.391Z" transform="translate(1571.813 1917.253)" fill="#fff"/>
  </g>
</svg>
